<?xml version="1.0" standalone="no"?>
<!DOCTYPE svg PUBLIC "-//W3C//DTD SVG 20010904//EN"
 "http://www.w3.org/TR/2001/REC-SVG-20010904/DTD/svg10.dtd">
<svg version="1.0" xmlns="http://www.w3.org/2000/svg"
 width="104.000000pt" height="113.000000pt" viewBox="0 0 104.000000 113.000000"
 preserveAspectRatio="xMidYMid meet">

<g transform="translate(0.000000,113.000000) scale(0.100000,-0.100000)"
fill="#000000" stroke="none">
<path d="M358 1107 c-164 -56 -296 -203 -343 -383 -20 -76 -20 -242 0 -318 20
-75 74 -178 125 -238 159 -185 453 -224 659 -87 105 70 192 195 226 325 20 76
20 242 0 318 -48 182 -187 335 -352 386 -93 29 -226 27 -315 -3z m32 -237 c45
-45 13 -130 -48 -130 -39 0 -64 30 -64 76 0 65 68 98 112 54z m369 -182 c46
-29 56 -65 59 -230 l4 -158 -60 0 -60 0 -3 128 c-4 137 -12 162 -54 162 -12 0
-30 -9 -41 -21 -16 -18 -20 -40 -23 -145 l-3 -124 -59 0 -59 0 0 200 0 200 60
0 c49 0 60 -3 60 -16 0 -15 2 -15 23 -1 13 8 32 17 42 20 27 8 92 -1 114 -15z
m-359 -188 l0 -200 -60 0 -60 0 0 200 0 200 60 0 60 0 0 -200z"/>
</g>
</svg>
