<svg width="25" height="27" viewBox="0 0 25 27" fill="none" xmlns="http://www.w3.org/2000/svg">
<path fill-rule="evenodd" clip-rule="evenodd" d="M12.3675 0C5.53757 0 0 5.98057 0 13.3569C0 20.7333 5.53757 26.7139 12.3675 26.7139C19.1975 26.7139 24.7351 20.7333 24.7351 13.3569C24.7351 5.98057 19.1975 0 12.3675 0ZM18.0999 9.08383C17.9144 11.1953 17.1084 16.3211 16.6993 18.6864C16.5261 19.6881 16.184 20.0232 15.8542 20.0554C15.1358 20.1267 14.5906 19.5423 13.8949 19.0503C12.8066 18.2801 12.1913 17.8004 11.1349 17.0479C9.91361 16.1786 10.7051 15.7011 11.4008 14.9208C11.5832 14.716 14.7473 11.6072 14.8091 11.3256C14.8163 11.29 14.8246 11.1586 14.7514 11.0896C14.6782 11.0206 14.5721 11.044 14.4958 11.0629C14.3865 11.0896 12.6479 12.3307 9.27875 14.7861C8.78508 15.1523 8.33778 15.3304 7.93687 15.3215C7.49576 15.3115 6.64652 15.0522 6.01475 14.8295C5.24075 14.558 4.62443 14.4133 4.67802 13.9524C4.70585 13.712 5.01195 13.466 5.59734 13.2145C9.20248 11.5181 11.6069 10.3995 12.8097 9.85854C16.2448 8.31581 16.958 8.04756 17.4238 8.03865C18.0071 8.02975 18.1473 8.54956 18.0999 9.08383Z" fill="black"/>
</svg>
